<svg viewBox="0 0 12 10" fill="none" xmlns="http://www.w3.org/2000/svg">
<path d="M0 9.74167V8.60417C0.281944 8.60417 0.522569 8.56042 0.721875 8.47292C0.921181 8.38542 1.12292 8.29062 1.32708 8.18854C1.53125 8.08646 1.75729 7.9941 2.00521 7.91146C2.25312 7.82882 2.55937 7.7875 2.92396 7.7875C3.28854 7.7875 3.58993 7.82882 3.82812 7.91146C4.06632 7.9941 4.2875 8.08646 4.49167 8.18854C4.69583 8.29062 4.9 8.38542 5.10417 8.47292C5.30833 8.56042 5.55139 8.60417 5.83333 8.60417C6.11528 8.60417 6.35833 8.56042 6.5625 8.47292C6.76667 8.38542 6.97083 8.29062 7.175 8.18854C7.37917 8.08646 7.60278 7.9941 7.84583 7.91146C8.08889 7.82882 8.39271 7.7875 8.75729 7.7875C9.12188 7.7875 9.42569 7.82882 9.66875 7.91146C9.91181 7.9941 10.1354 8.08646 10.3396 8.18854C10.5438 8.29062 10.7479 8.38542 10.9521 8.47292C11.1563 8.56042 11.3944 8.60417 11.6667 8.60417V9.74167C11.2972 9.74167 10.9885 9.69792 10.7406 9.61042C10.4927 9.52292 10.2667 9.42812 10.0625 9.32604C9.85833 9.22396 9.65903 9.1316 9.46458 9.04896C9.27014 8.96632 9.03194 8.925 8.75 8.925C8.47778 8.925 8.24201 8.96632 8.04271 9.04896C7.8434 9.1316 7.6441 9.22396 7.44479 9.32604C7.24549 9.42812 7.02187 9.52292 6.77396 9.61042C6.52604 9.69792 6.2125 9.74167 5.83333 9.74167C5.45417 9.74167 5.14062 9.69792 4.89271 9.61042C4.64479 9.52292 4.42118 9.42812 4.22188 9.32604C4.02257 9.22396 3.82569 9.1316 3.63125 9.04896C3.43681 8.96632 3.20104 8.925 2.92396 8.925C2.64687 8.925 2.40868 8.96632 2.20937 9.04896C2.01007 9.1316 1.80833 9.22396 1.60417 9.32604C1.4 9.42812 1.17396 9.52292 0.926042 9.61042C0.678125 9.69792 0.369444 9.74167 0 9.74167V9.74167M0 7.14583V6.00833C0.281944 6.00833 0.522569 5.96458 0.721875 5.87708C0.921181 5.78958 1.12292 5.69479 1.32708 5.59271C1.53125 5.49062 1.75729 5.39826 2.00521 5.31563C2.25312 5.23299 2.55937 5.19167 2.92396 5.19167C3.28854 5.19167 3.58993 5.23299 3.82812 5.31563C4.06632 5.39826 4.2875 5.49062 4.49167 5.59271C4.69583 5.69479 4.9 5.78958 5.10417 5.87708C5.30833 5.96458 5.55139 6.00833 5.83333 6.00833C6.11528 6.00833 6.35833 5.96458 6.5625 5.87708C6.76667 5.78958 6.97083 5.69479 7.175 5.59271C7.37917 5.49062 7.60278 5.39826 7.84583 5.31563C8.08889 5.23299 8.39028 5.19167 8.75 5.19167C9.11944 5.19167 9.42569 5.23299 9.66875 5.31563C9.91181 5.39826 10.1354 5.49062 10.3396 5.59271C10.5438 5.69479 10.7479 5.78958 10.9521 5.87708C11.1563 5.96458 11.3944 6.00833 11.6667 6.00833V7.14583C11.2972 7.14583 10.9885 7.10208 10.7406 7.01458C10.4927 6.92708 10.2667 6.83229 10.0625 6.73021C9.85833 6.62813 9.65903 6.53576 9.46458 6.45312C9.27014 6.37049 9.03194 6.32917 8.75 6.32917C8.46806 6.32917 8.22743 6.37049 8.02812 6.45312C7.82882 6.53576 7.62951 6.62813 7.43021 6.73021C7.2309 6.83229 7.00972 6.92708 6.76667 7.01458C6.52361 7.10208 6.2125 7.14583 5.83333 7.14583C5.45417 7.14583 5.14062 7.10208 4.89271 7.01458C4.64479 6.92708 4.42118 6.83229 4.22188 6.73021C4.02257 6.62813 3.82569 6.53576 3.63125 6.45312C3.43681 6.37049 3.20104 6.32917 2.92396 6.32917C2.64687 6.32917 2.40868 6.37049 2.20937 6.45312C2.01007 6.53576 1.80833 6.62813 1.60417 6.73021C1.4 6.83229 1.17396 6.92708 0.926042 7.01458C0.678125 7.10208 0.369444 7.14583 0 7.14583V7.14583M0 4.55V3.4125C0.281944 3.4125 0.522569 3.36875 0.721875 3.28125C0.921181 3.19375 1.12292 3.09896 1.32708 2.99688C1.53125 2.89479 1.75729 2.80243 2.00521 2.71979C2.25312 2.63715 2.55937 2.59583 2.92396 2.59583C3.28854 2.59583 3.58993 2.63715 3.82812 2.71979C4.06632 2.80243 4.2875 2.89479 4.49167 2.99688C4.69583 3.09896 4.9 3.19375 5.10417 3.28125C5.30833 3.36875 5.55139 3.4125 5.83333 3.4125C6.11528 3.4125 6.35833 3.36875 6.5625 3.28125C6.76667 3.19375 6.97083 3.09896 7.175 2.99688C7.37917 2.89479 7.60278 2.80243 7.84583 2.71979C8.08889 2.63715 8.39028 2.59583 8.75 2.59583C9.11944 2.59583 9.42569 2.63715 9.66875 2.71979C9.91181 2.80243 10.1354 2.89479 10.3396 2.99688C10.5438 3.09896 10.7479 3.19375 10.9521 3.28125C11.1563 3.36875 11.3944 3.4125 11.6667 3.4125V4.55C11.2972 4.55 10.9885 4.50625 10.7406 4.41875C10.4927 4.33125 10.2667 4.23646 10.0625 4.13438C9.85833 4.03229 9.65903 3.93993 9.46458 3.85729C9.27014 3.77465 9.03194 3.73333 8.75 3.73333C8.47778 3.73333 8.24201 3.77465 8.04271 3.85729C7.8434 3.93993 7.6441 4.03229 7.44479 4.13438C7.24549 4.23646 7.02187 4.33125 6.77396 4.41875C6.52604 4.50625 6.2125 4.55 5.83333 4.55C5.45417 4.55 5.14062 4.50625 4.89271 4.41875C4.64479 4.33125 4.42118 4.23646 4.22188 4.13438C4.02257 4.03229 3.82569 3.93993 3.63125 3.85729C3.43681 3.77465 3.20104 3.73333 2.92396 3.73333C2.64687 3.73333 2.40868 3.77465 2.20937 3.85729C2.01007 3.93993 1.80833 4.03229 1.60417 4.13438C1.4 4.23646 1.17396 4.33125 0.926042 4.41875C0.678125 4.50625 0.369444 4.55 0 4.55V4.55M0 1.95417V0.816667C0.281944 0.816667 0.522569 0.772917 0.721875 0.685417C0.921181 0.597917 1.12292 0.503125 1.32708 0.401042C1.53125 0.298958 1.75729 0.206597 2.00521 0.123958C2.25312 0.0413194 2.55937 0 2.92396 0C3.28854 0 3.58993 0.0413194 3.82812 0.123958C4.06632 0.206597 4.2875 0.298958 4.49167 0.401042C4.69583 0.503125 4.9 0.597917 5.10417 0.685417C5.30833 0.772917 5.55139 0.816667 5.83333 0.816667C6.11528 0.816667 6.35833 0.772917 6.5625 0.685417C6.76667 0.597917 6.97083 0.503125 7.175 0.401042C7.37917 0.298958 7.60278 0.206597 7.84583 0.123958C8.08889 0.0413194 8.39028 0 8.75 0C9.11944 0 9.42569 0.0413194 9.66875 0.123958C9.91181 0.206597 10.1354 0.298958 10.3396 0.401042C10.5438 0.503125 10.7479 0.597917 10.9521 0.685417C11.1563 0.772917 11.3944 0.816667 11.6667 0.816667V1.95417C11.2972 1.95417 10.9885 1.91042 10.7406 1.82292C10.4927 1.73542 10.2667 1.64063 10.0625 1.53854C9.85833 1.43646 9.65903 1.3441 9.46458 1.26146C9.27014 1.17882 9.03194 1.1375 8.75 1.1375C8.47778 1.1375 8.24201 1.17882 8.04271 1.26146C7.8434 1.3441 7.6441 1.43646 7.44479 1.53854C7.24549 1.64063 7.02187 1.73542 6.77396 1.82292C6.52604 1.91042 6.2125 1.95417 5.83333 1.95417C5.45417 1.95417 5.14062 1.91042 4.89271 1.82292C4.64479 1.73542 4.42118 1.64063 4.22188 1.53854C4.02257 1.43646 3.82569 1.3441 3.63125 1.26146C3.43681 1.17882 3.20104 1.1375 2.92396 1.1375C2.64687 1.1375 2.40868 1.17882 2.20937 1.26146C2.01007 1.3441 1.80833 1.43646 1.60417 1.53854C1.4 1.64063 1.17396 1.73542 0.926042 1.82292C0.678125 1.91042 0.369444 1.95417 0 1.95417V1.95417" fill="currentColor"/>
</svg>
