<svg viewBox="0 0 240 226" fill="none" xmlns="http://www.w3.org/2000/svg">
<path d="M27.8799 211.255C16.9799 200.397 8.44163 187.85 2.26498 173.614C-3.91167 159.378 -7 144.66 -7 129.459C-7 114.258 -4.09334 99.238 1.71998 84.3989C7.5333 69.5599 16.9799 55.6256 30.0599 42.5962C38.5377 34.1512 49.0138 26.9126 61.4882 20.8805C73.9626 14.8483 88.7381 10.083 105.815 6.58431C122.891 3.08567 142.39 0.974423 164.311 0.250566C186.232 -0.473291 210.757 0.371209 237.886 2.78407C239.824 28.3603 240.429 51.8857 239.703 73.3601C238.976 94.8345 236.978 114.198 233.708 131.45C230.438 148.702 225.836 163.782 219.901 176.691C213.967 189.599 206.639 200.397 197.919 209.083C185.082 221.871 171.457 231.221 157.045 237.133C142.632 243.044 127.917 246 112.9 246C97.1553 246 81.7742 242.924 66.7565 236.771C51.7387 230.618 38.7799 222.113 27.8799 211.255ZM68.5731 205.464C75.5976 209.566 82.8037 212.522 90.1914 214.331C97.5792 216.141 105.149 217.046 112.9 217.046C124.042 217.046 135.063 214.814 145.963 210.35C156.863 205.886 167.278 198.708 177.21 188.815C181.57 184.472 185.99 178.38 190.471 170.538C194.952 162.696 198.828 152.441 202.098 139.774C205.368 127.106 207.851 111.785 209.546 93.8091C211.242 75.8333 211.484 54.4192 210.273 29.5668C198.404 29.0842 185.021 28.9032 170.125 29.0239C155.228 29.1445 140.392 30.2906 125.616 32.4622C110.841 34.6338 96.792 38.1324 83.4698 42.9581C70.1476 47.7838 59.2476 54.4192 50.7699 62.8642C39.8699 73.722 32.361 84.4593 28.2432 95.0758C24.1255 105.692 22.0666 115.947 22.0666 125.84C22.0666 140.076 24.7916 152.562 30.2416 163.299C35.6916 174.037 40.4754 181.577 44.5932 185.92C54.7665 166.617 68.2098 148.098 84.9231 130.364C101.636 112.629 121.135 98.0919 143.42 86.7515C125.98 101.952 110.78 119.144 97.8214 138.326C84.8626 157.508 75.1131 179.888 68.5731 205.464Z" fill="currentColor" fill-opacity="0.33"/>
</svg>
