<svg viewBox="0 0 24 24" fill="none" xmlns="http://www.w3.org/2000/svg">
<path d="M20.1048 12.7996C16.6877 15.2321 10.7223 14.3054 10.7223 16.1008C10.7223 17.8962 11.0698 22.5296 11.0698 22.5296L8.52145 23.1667C8.52145 23.1667 8.86895 17.6646 8.86895 16.1008C8.86895 14.5371 4.81478 15.4637 2.61395 14.3054C0.413118 13.1471 -0.223965 7.2975 0.0656179 5.79167C1.97687 7.2975 3.19312 7.2975 5.74145 8.22417C8.28978 9.15083 9.21645 11.4675 9.62187 12.9733C9.62187 13.0312 5.16228 12.1625 2.61395 9.78792C3.42478 12.1625 6.32062 13.0892 7.59478 13.3787C8.05999 13.4199 8.50679 13.58 8.89223 13.8437C9.27766 14.1074 9.58876 14.4659 9.79562 14.8846C10.0852 13.6683 12.8652 10.9462 15.066 10.0196C17.2669 9.09291 19.4677 7.58708 19.8152 5.9075C17.3248 8.22417 15.1239 8.28208 12.9231 9.73C11.8707 10.4131 10.965 11.2991 10.259 12.3362C10.6065 10.7146 11.591 6.77625 13.5602 4.865C17.3827 1.21625 19.8152 2.72208 22.9427 0C23.2323 0.926667 23.5798 10.3671 20.1048 12.7996Z" fill="currentColor"/>
</svg>
