<svg viewBox="0 0 18 18" fill="none" xmlns="http://www.w3.org/2000/svg">
<path d="M18 7.82624C18 5.60405 16.2502 3.8033 14.0884 3.8033C13.6747 3.8033 13.2825 3.88682 12.9108 4.00736C12.9005 1.7924 11.1567 0 8.99947 0C6.84369 0 5.09737 1.7924 5.08925 4.00736C4.71755 3.88682 4.32538 3.8033 3.91166 3.8033C1.74987 3.8033 0 5.60405 0 7.82624C0 9.60664 1.13101 11.0977 2.69061 11.627C2.22325 12.2907 1.94263 13.097 1.94263 13.9767C1.94263 16.1989 3.69246 18 5.8539 18C7.14976 18 8.28749 17.3476 8.99951 16.3496C9.71258 17.3476 10.8503 18 12.1448 18C14.3076 18 16.0564 16.1989 16.0564 13.9767C16.0564 13.097 15.7754 12.2907 15.3095 11.627C16.869 11.0977 18 9.60668 18 7.82624ZM8.99947 11.9444C7.87549 11.9444 6.96298 11.0073 6.96298 9.85135C6.96298 8.69502 7.87549 7.75798 8.99947 7.75798C10.1245 7.75798 11.0359 8.69502 11.0359 9.85135C11.036 11.0073 10.1245 11.9444 8.99947 11.9444Z" fill="currentColor"/>
</svg>
