<svg viewBox="0 0 23 23" fill="none" xmlns="http://www.w3.org/2000/svg">
<path d="M4.53979 5.54004L6.53979 4.54004L9.53979 3.54004L12.5398 4.54004L15.0398 6.04004L18.5398 9.54004L19.0398 12.04V14.54L17.5398 17.04H16.5398L15.0398 19.04L13.0398 20.04L12.0398 19.04L9.53979 20.54C9.53979 20.54 8.03979 21.04 7.53979 21.04L7.03979 19.54C7.03979 19.54 4.53979 21.04 6.03979 20.54C7.10046 20.1865 4.53979 21.04 4.53979 21.04L3.03979 20.54V18.54V16.54L2.53979 16.04V15.04L3.03979 12.04L2.03979 11.04L3.03979 9.04004L4.03979 7.54004L4.53979 5.54004Z" fill="currentColor"/>
<path d="M15.965 5.83842C15.9163 5.79825 15.8773 5.74751 15.8511 5.69006C15.8249 5.6326 15.8121 5.56993 15.8137 5.5068C15.8153 5.44367 15.8312 5.38172 15.8603 5.32566C15.8894 5.2696 15.9308 5.22089 15.9815 5.18323C16.5399 4.67215 16.9202 4.22413 17.5398 3.54004L16.5212 2.97908C16.244 3.61211 16.0719 3.74847 15.7327 4.15918C15.7327 4.15918 15.2771 4.84391 14.9861 4.87163C14.8762 4.88209 14.7666 4.84848 14.6815 4.77818C14.5964 4.70788 14.5428 4.60666 14.5323 4.49678C14.5218 4.3869 14.5554 4.27736 14.6257 4.19226C15.2337 3.46983 15.7292 2.65971 16.0952 1.78932C16.1177 1.7343 16.1517 1.68473 16.195 1.64396C16.2383 1.60319 16.2898 1.57216 16.346 1.55297C16.4023 1.53377 16.462 1.52685 16.5212 1.53267C16.5804 1.5385 16.6376 1.55693 16.689 1.58673L18.8793 2.85622C18.9323 2.88686 18.9778 2.92881 19.0127 2.97908C19.0476 3.02935 19.071 3.0867 19.0812 3.14705C19.0914 3.20739 19.0882 3.26924 19.0718 3.3282C19.0554 3.38715 19.0261 3.44176 18.9862 3.48812C18.2383 4.36447 17.3974 5.15695 16.4783 5.85161C16.4036 5.90712 16.3124 5.93599 16.2194 5.9336C16.1263 5.93121 16.0368 5.8977 15.965 5.83842Z" fill="currentColor"/>
<path d="M2.87786 21.2315C2.82149 21.1851 2.77831 21.1247 2.75268 21.0563C2.17424 19.5256 2.21319 17.8301 2.8613 16.3276C2.88292 16.2774 2.91421 16.2319 2.95339 16.1938C2.99258 16.1557 3.03888 16.1257 3.08966 16.1055C3.14044 16.0853 3.19471 16.0753 3.24936 16.076C3.304 16.0768 3.35797 16.0883 3.40817 16.1099C3.45836 16.1315 3.50381 16.1628 3.54192 16.202C3.58002 16.2412 3.61003 16.2875 3.63024 16.3383C3.65045 16.3891 3.66046 16.4433 3.6597 16.498C3.65894 16.5526 3.64742 16.6066 3.6258 16.6568C3.09609 17.8852 3.03445 19.2651 3.45251 20.5359C4.27413 20.6378 5.10813 20.5551 5.89375 20.2939C5.99857 20.2588 6.11303 20.2667 6.21198 20.316C6.31092 20.3653 6.38623 20.4519 6.42134 20.5567C6.45645 20.6615 6.44849 20.776 6.3992 20.8749C6.34991 20.9739 6.26334 21.0492 6.15853 21.0843C5.1655 21.4149 4.10648 21.4966 3.07451 21.3222C3.00211 21.3098 2.93426 21.2785 2.87786 21.2315Z" fill="currentColor"/>
<path d="M2.10159 16.7418C2.02854 16.6815 1.97826 16.598 1.95904 16.5053C1.65816 14.8898 1.91457 13.2201 2.68631 11.7693C2.71113 11.7205 2.74533 11.6771 2.78696 11.6415C2.82859 11.606 2.87683 11.579 2.92891 11.5621C2.98099 11.5452 3.03589 11.5388 3.09047 11.5431C3.14504 11.5475 3.19822 11.5626 3.24696 11.5875C3.29569 11.6125 3.33902 11.6468 3.37447 11.6886C3.40991 11.7303 3.43678 11.7786 3.45352 11.8307C3.47026 11.8828 3.47656 11.9378 3.47204 11.9923C3.46752 12.0469 3.45229 12.1 3.4272 12.1487C2.79306 13.3437 2.54706 14.7066 2.72341 16.0479C2.89397 16.0653 3.06952 16.0752 3.25007 16.0775C4.17164 16.0812 5.08417 15.8958 5.93119 15.5327C6.03252 15.4917 6.14594 15.4921 6.24693 15.534C6.34792 15.5759 6.42837 15.6559 6.47089 15.7566C6.51342 15.8573 6.5146 15.9707 6.47419 16.0723C6.43377 16.1739 6.355 16.2555 6.25491 16.2995C5.30198 16.707 4.27556 16.9146 3.23915 16.9095C2.92525 16.906 2.61199 16.8801 2.30176 16.8321C2.22815 16.8205 2.15902 16.7893 2.10159 16.7418Z" fill="currentColor"/>
<path d="M1.75954 11.7467C1.70862 11.7047 1.66844 11.6511 1.64231 11.5905C1.61618 11.5299 1.60485 11.4639 1.60926 11.398C1.67313 10.4976 1.94226 9.62369 2.39602 8.84331C2.84978 8.06294 3.47614 7.39679 4.22711 6.89587C4.31838 6.83375 4.43058 6.81042 4.53904 6.83103C4.64751 6.85163 4.74334 6.91448 4.80546 7.00574C4.86759 7.09701 4.89091 7.20921 4.87031 7.31767C4.84971 7.42613 4.78686 7.52197 4.69559 7.58409C4.08454 7.99123 3.56867 8.52558 3.18328 9.15058C2.79789 9.77558 2.55208 10.4765 2.46269 11.2053C2.70421 11.3449 2.95495 11.468 3.21318 11.5737C4.49563 12.1014 5.91976 12.1755 7.2501 11.784C7.30332 11.765 7.35985 11.757 7.41624 11.7606C7.47264 11.7642 7.52771 11.7792 7.57812 11.8047C7.62852 11.8303 7.67319 11.8658 7.70941 11.9092C7.74563 11.9525 7.77264 12.0028 7.78879 12.057C7.80494 12.1111 7.80989 12.168 7.80335 12.2241C7.79681 12.2803 7.7789 12.3345 7.75073 12.3835C7.72255 12.4324 7.6847 12.4752 7.63947 12.509C7.59425 12.5429 7.5426 12.5672 7.48767 12.5805C6.53705 12.8593 5.53784 12.9317 4.55696 12.7929C3.57607 12.6542 2.63616 12.3075 1.80016 11.776C1.78605 11.767 1.77249 11.7573 1.75954 11.7467Z" fill="currentColor"/>
<path d="M7.44739 21.1566C7.39007 21.1092 7.34651 21.0473 7.32123 20.9773C7.21327 20.677 7.12724 20.3692 7.06383 20.0565C6.76459 18.4774 6.9536 16.8447 7.60568 15.3757C7.65044 15.2758 7.73277 15.1976 7.83482 15.1579C7.93687 15.1183 8.05043 15.1205 8.1509 15.164C8.25136 15.2075 8.33063 15.2888 8.37154 15.3904C8.41244 15.4919 8.41169 15.6055 8.36944 15.7065C7.78454 17.0185 7.61323 18.4775 7.87831 19.8893C7.91576 20.0714 7.95985 20.2467 8.0106 20.4153C9.35886 20.3326 10.6479 19.8323 11.699 18.9838C11.7419 18.9488 11.7913 18.9227 11.8445 18.907C11.8976 18.8913 11.9533 18.8864 12.0083 18.8925C12.0634 18.8986 12.1167 18.9157 12.165 18.9426C12.2134 18.9696 12.2559 19.006 12.29 19.0496C12.3242 19.0932 12.3493 19.1432 12.3638 19.1966C12.3784 19.2501 12.3822 19.3059 12.3749 19.3608C12.3676 19.4157 12.3495 19.4686 12.3215 19.5164C12.2935 19.5642 12.2563 19.6059 12.2119 19.6391C10.9368 20.6708 9.34953 21.2398 7.70934 21.2531C7.61351 21.2521 7.52098 21.218 7.44739 21.1566Z" fill="currentColor"/>
<path d="M12.4042 20.5398C12.3912 20.5289 12.3788 20.5173 12.3672 20.5049C11.6878 19.7841 11.1702 18.9266 10.8489 17.9897C10.5276 17.0528 10.4101 16.0581 10.5041 15.0721C10.5169 14.9637 10.5718 14.8647 10.657 14.7965C10.7421 14.7282 10.8506 14.6961 10.9592 14.7071C11.0678 14.718 11.1677 14.7712 11.2374 14.8552C11.3072 14.9391 11.3412 15.047 11.3321 15.1558C11.2545 15.9809 11.345 16.8132 11.5979 17.6024C11.8509 18.3916 12.2611 19.1213 12.8038 19.7476C13.5026 19.5222 14.1445 19.1485 14.6855 18.6521C15.2265 18.1557 15.6539 17.5482 15.9384 16.8713C15.9821 16.7699 16.0644 16.6901 16.167 16.6494C16.2696 16.6087 16.3842 16.6104 16.4856 16.6542C16.5869 16.698 16.6667 16.7802 16.7074 16.8828C16.7481 16.9854 16.7464 17.1 16.7026 17.2014C16.3524 18.0334 15.8164 18.7742 15.1357 19.3671C14.455 19.96 13.6476 20.3892 12.7753 20.6218C12.7114 20.6386 12.6444 20.6399 12.5799 20.6257C12.5153 20.6114 12.4551 20.582 12.4042 20.5398Z" fill="currentColor"/>
<path d="M7.35448 15.8124C7.2981 15.766 7.25493 15.7056 7.2293 15.6372C7.1839 15.5144 7.14251 15.3903 7.10513 15.2648C6.7912 14.2371 6.74206 13.1468 6.96228 12.0951C7.16887 11.1012 7.616 10.1731 8.26452 9.39209C8.37055 9.26374 8.47975 9.14396 8.59307 9.02704C8.66975 8.94765 8.77484 8.90196 8.8852 8.90005C8.99556 8.89813 9.10217 8.94013 9.18157 9.01681C9.26096 9.09349 9.30664 9.19857 9.30856 9.30894C9.31048 9.4193 9.26848 9.52591 9.1918 9.6053C9.09354 9.7066 8.9977 9.81151 8.90626 9.92221C8.34434 10.5999 7.95725 11.4051 7.77891 12.2671C7.58659 13.1809 7.62813 14.1284 7.89968 15.0218C7.90919 15.0534 7.91929 15.0849 7.92966 15.1162C7.96319 15.1207 7.99694 15.1242 8.02908 15.1265C8.95664 15.2258 9.89424 15.0894 10.7551 14.73C11.2589 14.519 11.7279 14.2331 12.1462 13.8818C12.188 13.8466 12.2364 13.8201 12.2885 13.8036C12.3407 13.7872 12.3955 13.7812 12.45 13.7859C12.5044 13.7907 12.5574 13.8061 12.6059 13.8313C12.6544 13.8566 12.6974 13.8911 12.7325 13.933C12.7677 13.9748 12.7942 14.0232 12.8107 14.0753C12.8271 14.1274 12.8331 14.1823 12.8284 14.2367C12.8236 14.2912 12.8082 14.3442 12.783 14.3926C12.7578 14.4411 12.7232 14.4842 12.6814 14.5193C12.1993 14.9236 11.659 15.253 11.0787 15.4961C10.0888 15.9101 9.01042 16.068 7.94333 15.955C7.81192 15.9409 7.68108 15.9235 7.5509 15.9007C7.47882 15.8891 7.41107 15.8586 7.35448 15.8124Z" fill="currentColor"/>
<path d="M4.51489 7.84342C4.39596 7.74517 4.28241 7.64454 4.17426 7.54152C3.92226 7.30478 3.69404 7.04393 3.49288 6.76272C3.45108 6.70266 3.42585 6.63266 3.41974 6.55975C3.41363 6.48684 3.42684 6.41361 3.45805 6.34743C4.40672 4.32401 7.22562 3.17724 9.39644 3.12538C10.8512 3.14087 12.2754 3.54561 13.5208 4.29756C13.7977 4.46024 14.0658 4.63739 14.324 4.82827C15.1925 5.47492 16.0278 6.16495 16.8268 6.89573C17.0583 7.10718 17.2779 7.33131 17.4846 7.5671C18.4691 8.65032 19.1418 9.97999 19.4312 11.4148C19.7901 13.5564 19.1958 16.5414 17.3881 17.8547C17.3291 17.8979 17.2596 17.9247 17.1869 17.9324C17.1141 17.9402 17.0406 17.9286 16.9738 17.8989C16.6597 17.7545 16.3606 17.5797 16.0806 17.3771C14.6881 16.3151 13.6358 14.8698 13.0526 13.2185C12.9136 12.8314 12.8081 12.433 12.7373 12.0279C12.5401 10.8499 12.6005 9.64319 12.9142 8.49078C13.0721 7.91071 13.318 7.35828 13.6433 6.85277C13.7047 6.76222 13.7992 6.69947 13.9065 6.67809C14.0137 6.6567 14.1251 6.67841 14.2165 6.73851C14.3079 6.79861 14.372 6.89227 14.3948 6.99924C14.4177 7.1062 14.3975 7.21787 14.3387 7.31008C14.0605 7.74467 13.8505 8.21928 13.716 8.71742C13.4349 9.75144 13.3813 10.8341 13.5588 11.8908C13.6215 12.2486 13.715 12.6003 13.8381 12.942C14.3619 14.4331 15.3093 15.7389 16.5642 16.6996C16.7338 16.8206 16.9109 16.9308 17.0943 17.0295C18.4287 15.8716 18.9204 13.3892 18.6128 11.5534C18.3497 10.2714 17.7448 9.08437 16.8622 8.118C16.6739 7.90508 16.4739 7.70276 16.2632 7.51197C15.4851 6.8006 14.6717 6.12872 13.8262 5.49885C13.5922 5.32575 13.3491 5.16516 13.0981 5.01775C11.9861 4.34241 10.7137 3.97665 9.41281 3.95836C7.55198 4.00286 5.2057 4.95326 4.32179 6.48333C4.45346 6.64499 4.59523 6.79815 4.74623 6.94192C5.92753 7.99142 7.38841 8.67495 8.9511 8.90934C9.3108 8.96513 9.67466 8.98972 10.0386 8.98284C10.4716 8.97165 10.9029 8.92316 11.3276 8.83789C11.3812 8.82721 11.4364 8.8272 11.49 8.83786C11.5437 8.84851 11.5947 8.86963 11.6401 8.9C11.6856 8.93036 11.7247 8.96939 11.755 9.01484C11.7854 9.0603 11.8066 9.1113 11.8172 9.16492C11.8279 9.21854 11.8279 9.27375 11.8173 9.32738C11.8066 9.381 11.7855 9.43201 11.7551 9.47748C11.7248 9.52295 11.6857 9.56199 11.6403 9.59237C11.5948 9.62276 11.5438 9.6439 11.4902 9.65458C11.0184 9.74877 10.5394 9.8024 10.0584 9.81489C9.64715 9.82171 9.23604 9.79312 8.82967 9.72943C7.2522 9.48556 5.76527 8.83562 4.51489 7.84342Z" fill="currentColor"/>
</svg>
