<svg viewBox="0 0 18 18" fill="none" xmlns="http://www.w3.org/2000/svg">
<path d="M8.25 17.2998C7.7 17.2998 7.14583 17.2373 6.5875 17.1123C6.02917 16.9873 5.45833 16.8081 4.875 16.5748C5.075 14.5581 5.65833 12.6748 6.625 10.9248C7.59167 9.1748 8.83333 7.63314 10.35 6.2998C8.51667 7.23314 6.92917 8.46647 5.5875 9.9998C4.24583 11.5331 3.30833 13.2831 2.775 15.2498C2.70833 15.1998 2.64583 15.1456 2.5875 15.0873C2.52917 15.029 2.46667 14.9665 2.4 14.8998C1.61667 14.1165 1.02083 13.2415 0.6125 12.2748C0.204167 11.3081 0 10.2998 0 9.2498C0 8.11647 0.225 7.03314 0.675 5.9998C1.125 4.96647 1.75 4.04981 2.55 3.2498C3.9 1.8998 5.65 1.02064 7.8 0.612305C9.95 0.203971 12.9667 0.166471 16.85 0.499804C17.15 4.48314 17.1 7.52064 16.7 9.6123C16.3 11.704 15.4333 13.4165 14.1 14.7498C13.2833 15.5665 12.3708 16.1956 11.3625 16.6373C10.3542 17.079 9.31667 17.2998 8.25 17.2998Z" fill="currentColor"/>
</svg>
