<svg viewBox="0 0 16 18" fill="none" xmlns="http://www.w3.org/2000/svg">
<path d="M6.68587 17.6426C5.85984 18.1662 4.73343 18.0914 3.90739 17.5678C2.3304 16.5205 0.0775802 14.2763 0.0024858 9.56346C-0.0726086 7.39407 1.57946 5.4491 3.7572 5.29949C4.65833 5.22468 5.55946 5.52391 6.23531 5.97275C7.28663 6.64601 8.71342 6.64601 9.76474 5.97275C10.4406 5.52391 11.3417 5.22468 12.2429 5.29949C14.4206 5.4491 16.0727 7.39407 15.9976 9.56346C15.9225 14.2763 13.6696 16.5953 12.0927 17.5678C11.2666 18.0914 10.2153 18.0914 9.31418 17.6426C8.56323 17.1937 7.51191 17.1937 6.68587 17.6426ZM8.26286 1.18512C7.28663 2.15761 6.91116 3.42932 7.13644 4.62623C8.33795 4.85065 9.61455 4.47661 10.5908 3.50413C11.567 2.53164 11.9425 1.25993 11.7172 0.0630237C10.5908 -0.161396 9.23908 0.212637 8.26286 1.18512Z" fill="currentColor"/>
</svg>
