<svg viewBox="0 0 13 13" fill="none" xmlns="http://www.w3.org/2000/svg">
<path d="M5.83333 1.75V0H7V1.75H5.83333V1.75M5.83333 12.8333V11.0833H7V12.8333H5.83333V12.8333M11.0833 7V5.83333H12.8333V7H11.0833V7M0 7V5.83333H1.75V7H0V7M10.325 3.325L9.50833 2.50833L10.5292 1.45833L11.375 2.30417L10.325 3.325V3.325M2.30417 11.375L1.45833 10.5292L2.50833 9.50833L3.325 10.325L2.30417 11.375V11.375M10.5292 11.375L9.50833 10.325L10.325 9.50833L11.375 10.5292L10.5292 11.375V11.375M2.50833 3.325L1.45833 2.30417L2.30417 1.45833L3.325 2.50833L2.50833 3.325V3.325M6.41667 9.91667C5.44444 9.91667 4.61806 9.57639 3.9375 8.89583C3.25694 8.21528 2.91667 7.38889 2.91667 6.41667C2.91667 5.44444 3.25694 4.61806 3.9375 3.9375C4.61806 3.25694 5.44444 2.91667 6.41667 2.91667C7.38889 2.91667 8.21528 3.25694 8.89583 3.9375C9.57639 4.61806 9.91667 5.44444 9.91667 6.41667C9.91667 7.38889 9.57639 8.21528 8.89583 8.89583C8.21528 9.57639 7.38889 9.91667 6.41667 9.91667V9.91667M6.41667 8.75C7.06806 8.75 7.61979 8.52396 8.07187 8.07187C8.52396 7.61979 8.75 7.06806 8.75 6.41667C8.75 5.76528 8.52396 5.21354 8.07187 4.76146C7.61979 4.30938 7.06806 4.08333 6.41667 4.08333C5.76528 4.08333 5.21354 4.30938 4.76146 4.76146C4.30938 5.21354 4.08333 5.76528 4.08333 6.41667C4.08333 7.06806 4.30938 7.61979 4.76146 8.07187C5.21354 8.52396 5.76528 8.75 6.41667 8.75V8.75M6.41667 6.41667V6.41667V6.41667V6.41667V6.41667V6.41667V6.41667V6.41667V6.41667V6.41667" fill="currentColor"/>
</svg>
